<svg xmlns="http://www.w3.org/2000/svg" xmlns:xlink="http://www.w3.org/1999/xlink">
   <symbol id="burger" viewBox="0 0 30 18">
      <rect width="30" height="2" rx="1" fill="#685ED6"/>
      <rect y="8" width="30" height="2" rx="1" fill="#33AFE1"/>
      <rect y="16" width="30" height="2" rx="1" fill="#18E1F7"/>
   </symbol>

   <symbol id="close" viewBox="0 0 28 28">
      <rect y="1.75" width="2.47487" height="37.123" rx="1.23743" transform="rotate(-45 0 1.75)" fill="#685ED6"/>
      <rect x="1.75" y="28" width="2.47487" height="37.123" rx="1.23743" transform="rotate(-135 1.75 28)" fill="#685ED6"/>
   </symbol>

   <symbol id="icon-1" viewBox="0 0 41 41" >
      <path d="M40.3721 0.587951C39.986 0.201926 39.4242 0.0687119 38.906 0.240233L11.1899 9.41386C10.4347 9.6638 10.8212 10.8319 11.5765 10.5819L39.2926 1.40831C39.4855 1.38814 39.5719 1.47451 39.5517 1.66744L27.7943 37.19C27.7027 37.4666 27.3171 37.4897 27.1931 37.226L22.4454 27.1254L24.6977 23.4898C25.1167 22.8137 24.0707 22.1657 23.6518 22.8419L21.4225 26.4403L15.8609 25.9693L31.2455 10.5846L25.3584 20.0873C24.9394 20.7634 25.9854 21.4115 26.4043 20.7352L35.0873 6.71964C35.4221 6.18031 34.7781 5.53811 34.2394 5.87327L13.8667 18.5466L3.72999 13.768C3.4666 13.6438 3.48989 13.2585 3.76633 13.167L8.49607 11.6016C9.25123 11.3516 8.86463 10.1835 8.10948 10.4335L3.37973 11.9989C2.07409 12.431 1.9613 14.2945 3.20534 14.881L13.3226 19.6503L13.8762 26.5199C13.9002 26.8174 14.1417 27.0567 14.4375 27.0836L21.3409 27.6682L26.0796 37.7494C26.6618 38.9881 28.5306 38.8814 28.9624 37.5766L40.7198 2.05412C40.8914 1.53579 40.7581 0.974057 40.3721 0.587951V0.587951ZM14.9958 25.0942L14.603 20.2197L14.5507 19.5702L30.3452 9.74492L14.9958 25.0942Z" fill="#685ED6"/>
      <path d="M12.0481 28.5781C11.804 28.3417 11.4145 28.348 11.1782 28.592L0.175233 39.9548C-0.376899 40.5249 0.503838 41.3842 1.05909 40.8107L12.062 29.448C12.2984 29.2039 12.2922 28.8145 12.0481 28.5781V28.5781Z" fill="#685ED6"/>
      <path d="M15.9985 28.5947L7.3021 37.6509C6.75276 38.2229 7.63612 39.0794 8.18957 38.5031L16.886 29.447C17.4369 28.8732 16.5496 28.021 15.9985 28.5947V28.5947Z" fill="#685ED6"/>
      <path d="M2.66782 33.8245C2.82942 33.8245 2.99085 33.7612 3.11168 33.6355L11.808 24.5793C12.359 24.0055 11.4715 23.1533 10.9205 23.727L2.22413 32.7832C1.86985 33.1521 2.15868 33.8245 2.66782 33.8245V33.8245Z" fill="#685ED6"/>
   </symbol>

   <symbol id="icon-2" viewBox="0 0 36 42">
      <path d="M14.0626 9.40014H9.98265L18.0001 0.320923L26.0175 9.39949H21.9375V24.2813H20.6251V8.08764H23.1076L18.0001 2.30411L12.8925 8.08764H15.3751V24.2813H14.0626V9.40014ZM6.8438 25.5938H29.1563V41.3438H6.8438V25.5938ZM27.8438 26.9063H20.6251V40.0313H27.8438V26.9063ZM12.0938 27.8959C12.0938 28.0737 12.2388 28.2188 12.4167 28.2188H15.0522C15.23 28.2188 15.3751 28.0737 15.3751 27.8959V26.9063H12.0938V27.8959ZM8.1563 40.0313H19.3126V26.9063H16.6876V27.8959C16.6876 28.7976 15.9539 29.5313 15.0522 29.5313H12.4167C11.515 29.5313 10.7813 28.7976 10.7813 27.8959V26.9063H8.1563V40.0313ZM2.9063 41.3438H4.2188V19.6875H2.93583L6.18755 15.5065L9.43927 19.6875H8.1563V24.2813H9.4688V21H12.1233L6.18755 13.3685L0.25177 21H2.9063V41.3438ZM26.5313 17.7188V24.2813H27.8438V16.4063H26.5608L29.8125 12.2253L33.0643 16.4063H31.7813V41.3438H33.0938V17.7188H35.7483L29.8125 10.0872L23.8768 17.7188H26.5313Z" fill="#685ED6"/>
   </symbol>

   <symbol id="icon-3" viewBox="0 0 39 40">
      <path d="M4.62061 32.079C4.62061 31.0574 3.7754 30.226 2.73679 30.226C1.69818 30.226 0.852966 31.0574 0.852966 32.079C0.852966 33.1006 1.69818 33.9319 2.73679 33.9319C3.7754 33.9319 4.62061 33.1006 4.62061 32.079ZM2.10885 32.079C2.10885 31.738 2.39017 31.4613 2.73679 31.4613C3.08341 31.4613 3.36473 31.738 3.36473 32.079C3.36473 32.4199 3.08341 32.6966 2.73679 32.6966C2.39017 32.6966 2.10885 32.4199 2.10885 32.079ZM0.852966 23.0886C0.852966 24.1102 1.69818 24.9416 2.73679 24.9416C3.7754 24.9416 4.62061 24.1102 4.62061 23.0886C4.62061 22.067 3.7754 21.2356 2.73679 21.2356C1.69818 21.2356 0.852966 22.067 0.852966 23.0886ZM2.73679 22.471C3.08341 22.471 3.36473 22.7477 3.36473 23.0886C3.36473 23.4296 3.08341 23.7063 2.73679 23.7063C2.39017 23.7063 2.10885 23.4296 2.10885 23.0886C2.10885 22.7477 2.39017 22.471 2.73679 22.471ZM18.4353 28.0299C18.4353 28.3708 18.7166 28.6475 19.0633 28.6475H20.3191C21.3578 28.6475 22.203 29.4789 22.203 30.5005C22.203 31.5221 21.3578 32.3535 20.3191 32.3535V33.5888H19.0633V32.3535C18.0246 32.3535 17.1794 31.5221 17.1794 30.5005H18.4353C18.4353 30.8415 18.7166 31.1182 19.0633 31.1182H20.3191C20.6658 31.1182 20.9471 30.8415 20.9471 30.5005C20.9471 30.1596 20.6658 29.8828 20.3191 29.8828H19.0633C18.0246 29.8828 17.1794 29.0515 17.1794 28.0299C17.1794 27.0083 18.0246 26.1769 19.0633 26.1769V24.9416H20.3191V26.1769C21.3578 26.1769 22.203 27.0083 22.203 28.0299H20.9471C20.9471 27.6889 20.6658 27.4122 20.3191 27.4122H19.0633C18.7166 27.4122 18.4353 27.6889 18.4353 28.0299ZM38.5294 32.079C38.5294 33.1006 37.6842 33.9319 36.6456 33.9319C35.607 33.9319 34.7618 33.1006 34.7618 32.079C34.7618 31.0574 35.607 30.226 36.6456 30.226C37.6842 30.226 38.5294 31.0574 38.5294 32.079ZM37.2736 32.079C37.2736 31.738 36.9922 31.4613 36.6456 31.4613C36.299 31.4613 36.0177 31.738 36.0177 32.079C36.0177 32.4199 36.299 32.6966 36.6456 32.6966C36.9922 32.6966 37.2736 32.4199 37.2736 32.079ZM36.6456 21.2356C37.6842 21.2356 38.5294 22.067 38.5294 23.0886C38.5294 24.1102 37.6842 24.9416 36.6456 24.9416C35.607 24.9416 34.7618 24.1102 34.7618 23.0886C34.7618 22.067 35.607 21.2356 36.6456 21.2356ZM36.6456 22.471C36.299 22.471 36.0177 22.7477 36.0177 23.0886C36.0177 23.4296 36.299 23.7063 36.6456 23.7063C36.9922 23.7063 37.2736 23.4296 37.2736 23.0886C37.2736 22.7477 36.9922 22.471 36.6456 22.471ZM33.5059 32.6966V31.4613H32.25V28.373H29.7383V29.6083H30.9941V32.6966H33.5059ZM33.5059 23.7063V22.471H30.9941V25.5592H29.7383V26.7946H32.25V23.7063H33.5059ZM5.8765 31.4613V32.6966H8.38826V29.6083H9.64414V28.373H7.13238V31.4613H5.8765ZM9.64414 25.5592H8.38826V22.471H5.8765V23.7063H7.13238V26.7946H9.64414V25.5592ZM17.1794 13.2061V12.9189L16.9735 12.7836C16.0422 12.1721 15.4457 11.1963 15.322 10.1178H14.6677C13.6291 10.1178 12.7838 9.28646 12.7838 8.26485C12.7838 7.80964 12.9584 7.39704 13.2366 7.07401C12.9427 6.48476 12.7838 5.83931 12.7838 5.17657C12.7838 2.79303 14.7562 0.852966 17.1794 0.852966H22.203C24.6262 0.852966 26.5986 2.79303 26.5986 5.17657C26.5986 5.83931 26.4397 6.48476 26.1464 7.07463C26.4246 7.39766 26.5986 7.80964 26.5986 8.26485C26.5986 9.28646 25.7533 10.1178 24.7147 10.1178H24.0604C23.9367 11.1963 23.3402 12.1728 22.4089 12.7836L22.203 12.9189V13.2061H31.6221C31.9021 13.2061 32.1583 13.3 32.3675 13.4526L32.618 13.2061C33.4274 12.4099 34.8403 12.4099 35.6497 13.2061H36.0177C37.0563 13.2061 37.9015 14.0375 37.9015 15.0591V16.2944C37.9015 17.316 37.0563 18.1474 36.0177 18.1474H32.878H30.9941H25.3427V20.6174H26.4548L28.0968 26.2714C28.353 27.1491 28.4824 28.0595 28.4824 28.9755C28.4824 32.0564 26.986 35.0008 24.4799 36.85L22.7053 38.1588C21.8394 38.7963 20.7688 39.1471 19.6912 39.1471C18.6137 39.1471 17.5443 38.7975 16.6802 38.1613L14.9032 36.85C12.3964 35.0008 10.9 32.057 10.9 28.9755C10.9 28.0595 11.0294 27.1491 11.2856 26.2702L12.927 20.6174H14.0397V18.1474H8.38826H6.50444H3.36473C2.32612 18.1474 1.48091 17.316 1.48091 16.2944V15.0591C1.48091 14.0375 2.32612 13.2061 3.36473 13.2061H3.7327C4.54212 12.4099 5.95499 12.4099 6.76441 13.2061L7.01495 13.4526C7.22406 13.3 7.48026 13.2061 7.76032 13.2061H17.1794ZM6.50444 16.9121V14.6971L5.8765 14.0795C5.54055 13.7503 4.95656 13.7503 4.62061 14.0795L4.25264 14.4414H3.36473C3.01811 14.4414 2.73679 14.7181 2.73679 15.0591V16.2944C2.73679 16.6353 3.01811 16.9121 3.36473 16.9121H6.50444ZM25.5085 21.8527H23.8369C22.7292 21.8527 21.6573 21.5327 20.7361 20.9287L19.6912 20.2431L18.6457 20.9287C17.7251 21.5334 16.652 21.8527 15.543 21.8527H13.8746L12.4937 26.6099C12.2696 27.3789 12.1559 28.1744 12.1559 28.9755C12.1559 31.6697 13.4645 34.2441 15.6567 35.8618L17.4325 37.1724C18.7286 38.1255 20.6526 38.1267 21.9524 37.17L23.7257 35.8618C25.9179 34.2447 27.2265 31.6703 27.2265 28.9755C27.2265 28.1744 27.1128 27.3789 26.8899 26.6111L25.5085 21.8527ZM33.5059 14.0795L32.878 14.6971V16.9121H36.0177C36.3643 16.9121 36.6456 16.6353 36.6456 16.2944V15.0591C36.6456 14.7181 36.3643 14.4414 36.0177 14.4414H35.1298L34.7618 14.0795C34.4258 13.7503 33.8419 13.7503 33.5059 14.0795ZM31.6221 14.4414H23.8902H22.203L19.6912 16.5501L17.4861 14.4414H15.4922H7.76032V16.9121H8.38826H15.2956V20.6174H15.543C16.4033 20.6174 17.2353 20.3697 17.9487 19.9009L19.6912 18.7576L21.4331 19.9009C22.1471 20.3697 22.9778 20.6174 23.8362 20.6174H24.0868V16.9121H30.9941H31.6221V14.4414ZM25.3427 8.26485C25.3427 7.9239 25.0614 7.64719 24.7147 7.64719H24.0868V8.02891V8.88251H24.7147C25.0614 8.88251 25.3427 8.6058 25.3427 8.26485ZM14.6677 8.88251H15.2956V7.64719H14.6677C14.3211 7.64719 14.0397 7.9239 14.0397 8.26485C14.0397 8.6058 14.3211 8.88251 14.6677 8.88251ZM16.9214 4.81585C17.5236 4.61882 18.1684 4.66268 18.7367 4.94309L19.7578 5.44525C20.2218 5.67378 20.7417 5.79422 21.2611 5.79422C21.7822 5.79422 22.3034 5.88317 22.7951 6.05302L23.3791 6.16337L24.0868 6.41188H24.7147C24.834 6.41188 24.9496 6.42547 25.0626 6.44647C25.246 6.0487 25.3427 5.61757 25.3427 5.17657C25.3427 3.47369 23.9342 2.08828 22.203 2.08828H17.1794C15.4482 2.08828 14.0397 3.47369 14.0397 5.17657C14.0397 5.61757 14.1364 6.0487 14.3192 6.44647C14.4328 6.42547 14.5484 6.41188 14.6677 6.41188H15.3873C15.5945 5.6744 16.1565 5.06662 16.9214 4.81585ZM17.6699 11.7558L17.8758 11.8911C18.2262 12.1209 18.4353 12.5051 18.4353 12.9189V13.5681L19.6912 14.8034L20.9471 13.5681V12.9189C20.9471 12.5051 21.1562 12.1209 21.5066 11.8911L21.7125 11.7558C22.4127 11.2963 22.8309 10.5279 22.8309 9.70029V7.41125L22.765 7.37851C22.3003 7.14998 21.7804 7.02954 21.2611 7.02954C20.5477 7.02954 19.8337 6.86339 19.1958 6.55024L18.1747 6.04808C17.906 5.9159 17.6008 5.8949 17.3195 5.98755C16.8598 6.13888 16.5515 6.55888 16.5515 7.03448V9.70029C16.5515 10.5279 16.9697 11.2963 17.6699 11.7558Z" fill="#685ED6"/>
   </symbol>

   <symbol id="icon-4" viewBox="0 0 40 40">
      <path d="M9.73349 17.6963L9.66632 17.562L10.8109 16.9894L10.8781 17.1244C11.1218 17.6125 11.6119 17.9151 12.1576 17.9151C12.7034 17.9151 13.1935 17.6119 13.4372 17.1244L13.5044 16.9894L14.649 17.562L14.5818 17.697C14.1199 18.6208 13.1909 19.1947 12.1576 19.1947C11.1244 19.1947 10.1948 18.6208 9.73349 17.6963ZM0.00172334 32.6302V32.071C0.00172334 30.1939 0.51739 28.3743 1.48475 26.7768L0.255078 24.6252C0.000443772 24.1812 -0.0654541 23.6636 0.0695406 23.1678C0.204535 22.6732 0.524428 22.2606 0.969718 22.0066C1.25698 21.8415 1.58583 21.7538 1.92108 21.7538C2.60949 21.7538 3.24799 22.1249 3.58836 22.7231L4.20639 23.8044C4.87369 23.3175 5.5992 22.9119 6.36439 22.599C4.94854 21.8978 3.85387 20.6528 3.35036 19.1576C1.81871 18.9209 0.641508 17.5933 0.641508 15.9958V15.5767C0.641508 15.3912 0.657503 15.2063 0.689492 15.0271L1.7848 8.72527C2.66451 3.67033 7.02656 0.00115967 12.1576 0.00115967C17.2887 0.00115967 21.6508 3.67033 22.5305 8.72527L23.6264 15.0284C23.6578 15.2063 23.6738 15.3912 23.6738 15.5767V15.9958C23.6738 17.5933 22.4966 18.9209 20.9649 19.157C20.4614 20.6528 19.3667 21.8978 17.9496 22.599C21.7231 24.1524 24.3136 27.8881 24.3136 32.071V32.6302C24.3136 35.0998 22.304 37.1087 19.8351 37.1087H17.9157V39.6678H6.39957V37.1087H4.48022C2.01065 37.1087 0.00172334 35.0998 0.00172334 32.6302ZM7.03936 35.8291H10.2383V33.5348L9.5985 32.8951C9.25622 32.5534 8.66121 32.5528 8.31893 32.8951L7.94402 33.27H7.03936C6.6862 33.27 6.39957 33.5572 6.39957 33.9098V35.1893C6.39957 35.5419 6.6862 35.8291 7.03936 35.8291ZM4.89032 27.5804L3.82316 28.2918L5.93701 31.9904H6.39957V30.2214L4.89032 27.5804ZM8.95871 26.8721H7.67914V31.7767C8.52174 31.1792 9.75845 31.2463 10.5032 31.9898L10.7584 32.2457C10.9715 32.0877 11.2325 31.9904 11.5179 31.9904H16.6361V26.8721H15.3566C15.3566 27.5778 14.7827 28.1517 14.077 28.1517H10.2383C9.5326 28.1517 8.95871 27.5778 8.95871 26.8721ZM14.077 13.4366C14.077 14.4948 14.9381 15.356 15.9964 15.356C17.0546 15.356 17.9157 14.4948 17.9157 13.4366C17.9157 12.3784 17.0546 11.5173 15.9964 11.5173C14.9381 11.5173 14.077 12.3784 14.077 13.4366ZM13.9023 11.0381C12.7993 10.6126 11.8051 9.91847 11.0271 8.98502L10.276 8.0842C10.0617 7.82637 9.74629 7.67858 9.41104 7.67858C8.98111 7.67858 8.59468 7.91722 8.40274 8.30173L8.13339 8.84171L7.16988 9.16288C6.70923 9.31643 6.39957 9.74636 6.39957 10.232V10.8941C6.93571 10.4879 7.59597 10.2377 8.31893 10.2377C9.86337 10.2377 11.1557 11.3388 11.4532 12.7969H12.862C13.0041 12.0976 13.3841 11.4911 13.9023 11.0381ZM8.31893 11.5173C7.26073 11.5173 6.39957 12.3784 6.39957 13.4366C6.39957 14.4948 7.26073 15.356 8.31893 15.356C9.37713 15.356 10.2383 14.4948 10.2383 13.4366C10.2383 12.3784 9.37713 11.5173 8.31893 11.5173ZM6.39957 16.0706C6.39957 17.6637 7.41491 19.0719 8.92609 19.5754C9.7111 19.8377 10.2383 20.569 10.2383 21.3962V22.3156L10.3931 22.9349C10.5959 23.7468 11.3214 24.313 12.1576 24.313C12.9938 24.313 13.7187 23.7468 13.9222 22.9355L14.077 22.3162V21.3968C14.077 20.5696 14.6042 19.8377 15.3892 19.576C16.9004 19.0725 17.9157 17.6643 17.9157 16.0713V15.9798C17.3796 16.3861 16.7193 16.6362 15.9964 16.6362C14.4519 16.6362 13.1595 15.5351 12.862 14.0771H11.4532C11.1557 15.5351 9.86401 16.6362 8.31893 16.6362C7.59597 16.6362 6.93571 16.3861 6.39957 15.9798V16.0706ZM10.2383 25.5926V26.8721H14.0776L14.077 25.5926H10.2383ZM16.6361 37.1087H12.1576H10.2383H7.67914V38.3883H16.6361V37.1087ZM15.9528 23.313L15.187 23.1486L15.1627 23.2458C15.0527 23.686 14.8447 24.0769 14.5767 24.4147C15.0348 24.6098 15.3566 25.0641 15.3566 25.5926H17.9157V31.9904H20.2304L21.0468 33.6238L19.9022 34.1964L19.4397 33.27H11.5179V35.8291H12.1576H19.8351C21.5989 35.8291 23.034 34.3941 23.034 32.6302V32.071C23.034 27.8759 20.0558 24.1927 15.9528 23.313ZM7.15644 21.5651L8.24088 22.0302L8.95808 21.8767V21.3968C8.95808 21.1211 8.78277 20.8767 8.52046 20.7897C6.48595 20.1115 5.11936 18.2158 5.11936 16.0713V10.2313C5.11936 9.19423 5.78026 8.27678 6.76425 7.94857L7.22426 7.79566L7.25753 7.72976C7.66827 6.90892 8.49295 6.39901 9.4104 6.39901C10.1263 6.39901 10.8007 6.71442 11.2594 7.26528L12.0105 8.16609C12.7283 9.02789 13.6695 9.64336 14.7129 9.96965C14.5703 9.69902 14.4621 9.406 14.4097 9.0893C14.2696 8.24991 13.5959 7.67858 12.7974 7.67858V6.39901C14.2235 6.39901 15.4289 7.42011 15.663 8.82699C15.8031 9.66639 16.4775 10.2377 17.2759 10.2377H18.5555H19.1953V16.0706C19.1953 18.2152 17.8281 20.1115 15.7942 20.7891C15.5325 20.8761 15.3566 21.1205 15.3566 21.3962V21.876L16.0738 22.0296L17.1576 21.5645C18.4941 20.9919 19.5017 19.8089 19.8543 18.3988L19.9745 17.9151H20.4742C21.5324 17.9151 22.3936 17.054 22.3936 15.9958V15.5767C22.3936 15.4673 22.384 15.3579 22.3654 15.2492L21.2688 8.94471C20.4972 4.50397 16.6649 1.28073 12.1576 1.28073C7.65035 1.28073 3.81804 4.50397 3.04518 8.94471L1.94923 15.2479C1.93004 15.3579 1.92044 15.4673 1.92044 15.5767V15.9958C1.92044 17.054 2.78159 17.9151 3.83979 17.9151H4.33947L4.45975 18.3995C4.81291 19.8095 5.82057 20.9931 7.15644 21.5651ZM4.85257 24.9349L6.39957 27.6418V25.5926H8.95871C8.95871 25.0641 9.28053 24.6098 9.73861 24.4147C9.47054 24.0769 9.26261 23.686 9.15257 23.2458L9.12826 23.1486L8.3618 23.313C7.08606 23.5862 5.88967 24.1524 4.85257 24.9349ZM1.36511 23.9899L3.18721 27.1786L4.25437 26.4671L2.47705 23.3565C2.30815 23.0603 1.89741 22.949 1.60502 23.1172C1.45531 23.203 1.34911 23.3399 1.30369 23.5049C1.2589 23.67 1.28065 23.8421 1.36511 23.9899ZM1.28129 32.6302C1.28129 34.3941 2.71633 35.8291 4.48022 35.8291H5.23772C5.16607 35.6282 5.12 35.4145 5.12 35.1893V33.9098C5.12 33.6846 5.16607 33.4709 5.23772 33.27H4.23582L3.77262 34.1957L2.62804 33.6231L3.44505 31.9904H4.46358L2.2269 28.0762C1.60886 29.3129 1.28129 30.6737 1.28129 32.071V32.6302ZM37.433 14.452L34.4362 16.864C34.1068 17.1288 33.6928 17.2754 33.2705 17.2754C32.8483 17.2754 32.4337 17.1295 32.1049 16.864L29.1081 14.4513C27.6871 13.308 26.8727 11.603 26.8727 9.77323C26.8727 9.24093 26.9431 8.71119 27.0826 8.19744L28.4997 2.96912L28.9674 2.94993C30.3717 2.89171 31.7293 2.56478 33.0031 1.97873L33.2705 1.8559L33.538 1.97873C34.8111 2.56478 36.1688 2.89107 37.5737 2.94993L38.0414 2.96912L39.4585 8.19681C39.598 8.71119 39.6684 9.24093 39.6684 9.77259C39.6684 11.6037 38.8533 13.3087 37.433 14.452ZM38.3888 9.77323C38.3888 9.35418 38.3332 8.9364 38.2238 8.53205L37.0491 4.20007C35.9704 4.1137 34.9212 3.8757 33.9103 3.50654V10.8775H32.6308V3.50654C31.6199 3.8757 30.57 4.11306 29.492 4.20007L28.3173 8.53269C28.2079 8.93704 28.1523 9.35482 28.1523 9.77323C28.1523 11.2134 28.7933 12.5557 29.9104 13.4546L32.6308 15.6445V12.1571H33.9103V15.6445L36.6307 13.4552C37.7478 12.5563 38.3888 11.214 38.3888 9.77323ZM36.6569 18.102L30.7114 24.0481L29.8842 23.2209L28.9795 24.1255L30.7114 25.8574L37.5616 19.0066L36.6569 18.102ZM36.6569 22.5805L30.7114 28.5266L29.8842 27.6994L28.9795 28.604L30.7114 30.3359L37.5616 23.4851L36.6569 22.5805ZM29.8842 32.1779L28.9795 33.0825L30.7114 34.8144L37.5616 27.9636L36.6569 27.0589L30.7114 33.0051L29.8842 32.1779Z" fill="#685ED6"/>
   </symbol>
</svg>